<svg xmlns="http://www.w3.org/2000/svg" width="400" height="492" version="1.1" viewBox="0 0 4000 4920"><g fill-rule="evenodd" stroke="none"><path d="m3940 50 10 10 10 1190v1180-1190a42900 42900 0 00-20-1190M240 1880v50l10-40c0-20 0-30-10-10m40 140 10 10 20 10-20-10-10-10m350 110h20-20m70 0h20-20m140 10h30-30m50 10h20-20m60 0h30-30m80 10h10-10s-10 0 0 0m2920 560c0 160 0 220 10 140a21730 21730 0 00-10-140M950 2460a1110 1110 0 01-160 70l-20 10-20 10-40 10-20 10-20 10h-10l-20 10-30 10-20 10-10 10h-30l-20 10-20 10h-10l-20 10a8760 8760 0 01-320 170l-90 70c-30 20-40 30-60 70l-10 10v60l10 60 10 10 20 50c40 40 70 60 160 60a8120 8120 0 01 990 160l20 10h20l20 10 10 10h20l10 10 20 10 10 10 20 10 20 10 30 10 10 10 10 10 40 30 50 30a1120 1120 0 01 270 330l10 30 20 20 20 30 10 20 20 40a820 820 0 01 50 80 1520 1520 0 01 80 150 1070 1070 0 01 60 110v10h10l20 30 10 20 30 50a390 390 0 01 40 60l30 30 30 40a900 900 0 01 80 90l30 30a800 800 0 00 340 180h30l40 10 50 10h50a520 520 0 00 200 0l60-10 40-10 40-10h30l20-10 20-10 30-10 40-10 40-20h10l10-10 20-10 20-10 30-20c50-30 90-60 130-110a710 710 0 00 100-200l10-20 10-30 10-30 10-90v-90l10-310c-10-10-10-10-30 10l-20 10-10 10h-10l-20 20-30 10a2950 2950 0 00-170 90h-30l-20 10-30 10h-40l-70 10-70 10a1750 1750 0 01-330-10l-40-20-30-10h-20l-20-10-20-10-30-20a5920 5920 0 01-120-80 720 720 0 01-120-120l-40-50-30-30a760 760 0 01-90-140l-10-20a10260 10260 0 00-530-800 940 940 0 00-290-200 3220 3220 0 01-160-50l-30-10-30-10-40-10-30-10h-40l-40-10H950m890 50 20 20-30-30 10 10m2110 560v30a850 850 0 00 0-30m-10 130v10-20 10m-1460 320c30 40 80 90 100 90l-30-20a4910 4910 0 01-70-70" fill="#8b8c85"/><path d="M3920 60a750 750 0 00-110 50l-20 10-10 10h-20l-10 10-30 20a1500 1500 0 00-160 80 590 590 0 01-60 30l-20 10-20 20h-10l-10 10h-20l-10 10-20 10h-10l-20 10-10 10-20 10h-10l-40 30a1910 1910 0 00-140 60 5400 5400 0 01-580 290h-10l-20 10-10 10-20 10a3800 3800 0 01-420 190 2180 2180 0 00-200 90l-30 10-30 10-10 10h-10l-20 10-20 10-20 10a1860 1860 0 01-210 90h-10l-20 10-10 10-30 10-20 10h-10l-40 20a1440 1440 0 00-120 50l-20 10h-30l-10 10-10 10h-30l-20 10-20 10-20 10-20 10h-20l-20 10-20 10-20 10h-10l-30 10-20 10h-10l-20 10-20 10-20 10h-20a1150 1150 0 01-110 50l-30 10-20 10-10 10h-10a1540 1540 0 00-370 230l-20 20c-70 90-50 220 50 270a1970 1970 0 01 70 30l40 10h30l40 10 70 10 80 10 80 10h70l90 10a1750 1750 0 00 180 20h50l40 10h40l40 10 40 10 20 10h30a500 500 0 01 100 30l20 10 30 10 20 10a770 770 0 00 60 30h10l10 10 20 10 20 10a16950 16950 0 00 100 80 1070 1070 0 01 200 220 1560 1560 0 01 140 220 760 760 0 01 60 110l10 10 10 20 10 20a900 900 0 01 60 110 5410 5410 0 01 170 300l20 20a1290 1290 0 00 230 220l70 50a620 620 0 01 40 20l20 10 70 20 30 10 30 10 60 10a1530 1530 0 00 480-40l30-10 20-10 20-10h20l20-10 10-10a450 450 0 00 100-50 510 510 0 00 190-210l20-30v-10l10-20 10-20v-20l10-20 10-30c20-60 20-70 30-220V60h-30" fill="#0c74dc"/><path d="M0 1490a107720 107720 0 00 10 1470c20-40 30-50 60-70l90-70a8450 8450 0 00 280-150 8760 8760 0 00 270-110l40-10 20-10 20-10 20-10h10l10-10h20l20-10 40-20 40-20h130l40 10h40l30 10 40 10 30 10 30 10h20l20 10 20 10h20l20 10 20 10a3220 3220 0 00 160 80c20 0 120 80 170 130a1440 1440 0 01 300 390l20 40a480 480 0 01 40 80l10 20 10 10 20 20 10 30 10 10v10l10 20 10 10 10 10a510 510 0 00 40 80 1540 1540 0 00 140 230l30 30 40 50 30 40a720 720 0 00 210 160l30 20 20 10 20 10h20l30 10 40 20 30 10a1750 1750 0 00 590-60l20-10h20l10-10 40-20a2950 2950 0 01 170-90 2860 2860 0 01-50 600l-10 10-10 20-10 20a550 550 0 01-270 270l-10 10h-10l-40 20-40 10-30 10-20 10-20 10h-30l-40 10-40 10-60 10a9280 9280 0 00-50 10h1020V0H0v1490M3960 50a150460 150460 0 01-20 3160l-20 90a640 640 0 00-30 80l-10 20v10l-20 30a600 600 0 01-330 280l-20 10-30 10-90 20-30 10-50 10-70 10a2240 2240 0 01-360-20l-30-10a840 840 0 01-270-140l-90-90a5400 5400 0 00-120-150 1260 1260 0 01-110-200 3320 3320 0 01-190-340l-10-20a830 830 0 00-60-100 1250 1250 0 00-130-180l-20-30a970 970 0 00-640-330h-50a1940 1940 0 00-260-30 2030 2030 0 00-240-20l-80-10-60-10-40-10h-40l-30-10-20-10c-60-10-140-80-140-120v-20c-30-40 10-130 70-190a710 710 0 00 50-30l10-20 80-50a1980 1980 0 01 360-170l40-20h20l20-10 20-10 10-10h20l20-10 20-10h20l20-10 30-10 20-10 10-10h10l30-10 20-10 20-10h20l20-10 20-10 20-10h10l20-10 10-10 30-10a1160 1160 0 01 150-60h20l10-10 10-10h20l30-10 10-10 50-20 30-10a4120 4120 0 01 380-170 6010 6010 0 01 500-230h10a1410 1410 0 00 170-80l10-10h10l20-10 10-10 20-10 10-10 30-10 40-20 20-10h10l20-10 10-10h10l20-10 10-10a6400 6400 0 01 540-270 570 570 0 00 60-30 1160 1160 0 00 130-70 7790 7790 0 01 270-120M0 4010v910h1410a128820 128820 0 00 1320-20l-40-10h-30l-30-10a490 490 0 01-100-40 810 810 0 01-240-160l-10-10-70-80-30-40a240 240 0 00-40-40l-30-50-30-50-10-20-20-30-10-10-10-30-30-40a1070 1070 0 00-50-100l-20-20-10-30a1520 1520 0 00-70-120l-20-40-10-20-20-30-20-20-10-30-20-30-10-10-30-40-30-60-20-20a1120 1120 0 00-710-420h-30l-30-10-30-10h-30l-50-10-50-10-90-10-70-10H460a3400 3400 0 01-260-20c-90 0-120-20-160-60l-20-50c-20-30-20-40-20 910" fill="none"/></g></svg>
