<svg xmlns="http://www.w3.org/2000/svg" width="400" height="159.5" version="1.1" viewBox="0 0 4000 1595"><g fill-rule="evenodd" stroke="none"><path d="M0 245v246h396V400H262c-122 0-136 0-137-3V0H0v245M630 2l-4 10A4923 4923 0 00 563 160l-8 17a136 136 0 00-7 18 8636 8636 0 01-40 93A4610 4610 0 01 440 443l-2 6-8 16a198 198 0 00-9 21c-4 5 1 6 60 6 58 0 64 0 64-4l2-7a532 532 0 00 21-52 628 628 0 00 20-45c1-3 206-3 208 0l11 28a1412 1412 0 00 31 76l2 4h63c70 0 65 0 58-14a3598 3598 0 01-58-135l-10-24-5-11a886 886 0 00-25-59 1386 1386 0 01-33-78A4729 4729 0 01 760 5l-2-5h-64C650 0 630 0 630 2m404 243v246H1460v-46l1-45h-304V280h270v-83h-5a61220 61220 0 00-261-1l-4-1V92h295V0h-419v245m527-1 1 246c1 1 14 2 58 1h57V323a3516 3516 0 01 4-170l2 8 4 9a7376 7376 0 01 82 200 913 913 0 01 29 73 847 847 0 00 17 42l3 7h46l46-1 3-5 3-8c0-1 0-4 2-6l6-15 5-13 4-10a320 320 0 01 17-40l1-4 8-20 2-5 2-7a532 532 0 00 21-52 4839 4839 0 00 57-143c0-5 6-16 7-13 0 1 2 79 2 172V490h114v-3c1-2 2-113 2-246V0H1990v5l-3 6-2 3-2 8a737 737 0 00-25 69 752 752 0 00-88 241l-3 3c-2 0-3-4-20-46a1620 1620 0 00-34-89 1401 1401 0 00-33-83c0-1 0-3-2-5a115 115 0 01-10-25 270 270 0 01-15-38 613 613 0 01-17-44l-1-5H1560v244m715-2c0 152 0 243 2 245l1 5h56c50 0 56 0 57-3V321c0-91 1-166 2-167l7 13a2334 2334 0 00 32 79 4260 4260 0 01 62 154 1810 1810 0 00 30 73l7 18h93l3-5 3-8c0-1 0-4 2-6l6-15a193 193 0 01 9-22l1-5a262 262 0 00 15-36 896 896 0 00 25-63 847 847 0 00 20-50 2183 2183 0 00 33-83 300 300 0 01 14-35c0-5 6-16 7-13 0 1 2 79 2 172V490H2880V0h-175v5l-3 6-2 3-2 8a1375 1375 0 00-40 109l-4 10-2 7-2 3-2 8a436 436 0 00-20 55l-6 15a597 597 0 01-22 60 882 882 0 01-16 43c-2 7-3 5-13-22a763 763 0 00-29-72 20 20 0 01-2-6l-1-5-6-11a427 427 0 00-14-39 1350 1350 0 00-36-90 636 636 0 01-20-50 532 532 0 00-12-32L2450 0h-175v242m715 2 1 246c1 1 45 2 213 1h212V400h-150c-136 0-150 0-152-3a1460 1460 0 01 0-115c2-2 31-2 136-2h134v-42l-1-41a50492 50492 0 00-266-2c-4-2-4-3-3-52v-50l148-1 147-1V45L3410 0h-420v244m529 1v246h120l1-95 1-96c2-2 154 1 162 4 38 11 52 34 57 96 4 41 10 74 15 85l3 6H4000l-4-6A140 140 0 01 3980 420c-6-84-15-113-42-138-10-7-30-19-35-19-10 0-6-5 6-10 53-25 80-72 73-133l-3-20-6-13c-16-40-68-78-116-83-6 0-10-2-11-3L3682 0h-164v245M3810 88c36 10 50 27 50 62 2 39-16 63-53 70-16 4-161 4-164 0-2-2-3-132 0-134 2-3 154-1 167 2M701 140a12956 12956 0 01 61 160c-2 2-140 1-140-1a166 166 0 01 13-35l3-10a482 482 0 00 25-60 1782 1782 0 00 27-67c0-4 4-4 6 0l5 13m-19 600a1937 1937 0 01-50 27 7253 7253 0 01-330 157 1602 1602 0 01-110 46c-120 45-158 71-147 103 6 20 28 27 100 31 140 10 177 35 248 175l30 50c6 10 8 11 19 23 16 17 28 25 54 36 30 13 102 8 136-10 33-18 48-37 60-78 4-11 4-14 4-288V735h-3l-10 4" fill="#0875d8"/><path d="M124 198v98a26223 26223 0 00 0-99M1452 46v47h-295 296V-2v46M3848 3h6-6m101 50 5 5 6 5-5-6-6-5m-310 91c0 32 0 45 1 30a2040 2040 0 00 0-30m-380-51h-147 148m-2105 53V170a1539 1539 0 00 0-25m1957 0v23a1390 1390 0 00 0-24m868-24v4c1-2 1-6 0-8v4m0 33v3-6 3m-2306 170a5798 5798 0 00 2 0 8841 8841 0 00-2 0m716-158v5-10 5m0 166a6112 6112 0 01 0 1V176 330m-970-135h5V280v-84h-4c-3 0-3 0 0 0m1945 0h5-6m273 15c0 4 0 6 1 4v-9 5M1156 340v30a2083 2083 0 00 0-30m1957 3V370a1747 1747 0 00 0-27m526 55a1784 1784 0 00 2 0 2771 2771 0 00-2 0m337-15v5-10 5m-120 0v2-6 4m-3460 62v-46 46m3020 0v47l1-46a677 677 0 00-2 0m446-16v4c1-2 1-6 0-8v4m5 32 1 6c2 2 2 1 0-3 0-7-1-9-1-3M693 733c-2 2-2 2 0 2 3 0 4 2 4 19v18-19c1-20 0-22-4-20m861 11c-46 10-69 66-43 108 26 42 97 40 120-4 27-55-18-117-77-104m775 0c-32 5-50 25-56 63-3 17 6 43 20 56a77 77 0 00 73 16l9-4 10 8c10 10 10 10 18 0l5-6-7-7-8-8 5-8c28-42 6-100-42-110a52 52 0 00-27 0m851 0c-74 20-64 134 12 137 18 1 23 0 35-9 10-6 10-6 10-2 0 7 3 10 10 10 14 0 13 1 13-38v-35h-60v22h15c16 0 18 0 12 13-13 23-53 18-62-7-11-29 0-60 24-65 17-3 34 4 36 16 0 3 2 3 16 4h16l-1-5c-7-30-42-50-76-40m274 0c-46 10-54 63-10 72 36 8 53 16 53 26 0 22-45 21-54 0l-4-9h-15l-14 1v6c9 49 96 58 116 12 10-26-5-44-48-55-31-8-36-10-31-21 6-16 40-13 44 3l2 6h15c15 0 15 0 15-3 0-26-35-46-70-39m320 0c-43 10-64 58-44 102 21 48 100 48 122 0 26-57-18-115-77-102m-2382 3V880h13c21 2 20 4 20-27v-27h57v-23h-28l-28-1-1-13v-15l33-1h32v-25h-98M1190 813V880h30V747h-30v66m57 0v66h15l15 1v-42l1-44h2l13 21a553 553 0 01 27 42l15 23h30V747h-28v40c0 50 0 49-15 26l-27-43-16-23h-32v66m415 0v66h30v-26l1-27 20 1c27 1 30 4 34 30 2 23 2 23 19 23 15 0 16 0 14-6l-4-21c-1-19-5-28-14-34l-4-3 8-6c20-18 14-49-10-60-7-3-11-3-50-3h-44v66m145 0v66h14l14 1v-44c0-28 0-44 2-43l16 41 16 43c1 3 3 3 13 3h12l4-13a1127 1127 0 00 26-71c2-6 2-2 3 38V880h15l15 1V747h-45l-14 43c-13 40-16 47-17 41a2007 2007 0 00-26-71l-4-13h-44v66m216-60a1016 1016 0 00-30 73l-20 52c0 1 6 2 16 2h15l6-15 5-15h51l2 5a425 425 0 01 10 23c1 3 28 3 30 0a491 491 0 00-31-82l-18-46c0-3-2-3-17-3h-17l-2 5m64 7v13h43V880h30V772h42v-25h-115v12m132 54v66h30v-66l1-66h-32v66m217-15c0 58 1 59 14 70 21 19 68 19 88 0 15-12 16-20 16-75v-46h-31v49c-1 59-2 60-27 60-27 0-30-4-30-63v-46h-30v50m145 16V880h106v-26H2610v-31h35l33-1V800l-34-1H2610v-27h75v-25H2580v66m200 0v66h32c46 1 59-2 75-18 24-23 23-74 0-98-15-14-20-15-67-16h-40v66m148 0V880h106v-26H2960v-32h67V810l-1-10-33-1H2960v-27h73v-25h-105v66m357 0V880H3390v-27h-75v-30h35l33-1V800l-34-1h-34v-27h36c42 0 39 0 39-15v-10h-105v66m252-54v13h40l1 54 1 53h31V771h40v-25h-113v12m130 54v66h30v-66l1-66h-31v66m215 0v66h15l15 1v-42c0-49 0-48 9-33a126 126 0 00 12 20l35 53c2 1 7 2 17 2h15V747h-29V830c-1 2-24-30-37-51 0-2-6-10-10-17l-10-14h-32v66m-2296-41c17 6 27 44 16 64-18 34-62 26-69-13-6-38 20-63 53-51m774 1c15 8 22 30 16 56-2 13-4 14-14 7l-7-7-7 7c-8 8-8 9-1 14 7 5 6 7-5 7-24 0-37-16-37-45 0-35 27-53 55-39m1438-3c20 4 28 15 28 43 0 30-12 44-36 44-24 0-36-15-36-44 0-30 8-40 35-44l10 1m-2058 4c5 4 7 14 4 21-3 10-10 12-32 12h-20V770h22c20 0 22 0 26 4m1110 0c17 6 25 25 20 50-3 23-12 30-42 30h-17v-81c3-2 30-1 38 1M697 1020v124a42540 42540 0 00 0-124m1354-213c7 22 8 20-11 20l-16-1 8-22c10-26 9-26 19 3M42 1056v8c0 4 0 4 1-3v-5m1474 26c-60 10-72 100-17 130 33 18 79 3 91-30 7-16 6-17-10-17h-15l-3 6c-12 35-57 30-66-8-3-15 0-32 8-43 13-20 50-18 57 2l2 6h31l-1-4c-3-13-16-32-21-32l-5-3c-8-6-34-10-51-7m340 0c-30 5-48 35-33 57 8 10 16 14 52 23 24 6 31 15 22 27-12 16-53 6-53-13v-4h-31v7c7 50 107 56 118 6 5-27-7-38-56-50-22-7-26-10-26-18 2-20 47-17 47 3 0 3 1 3 16 3h15v-4a46 46 0 00-27-34 130 130 0 00-44-3m140 0c-21 4-36 20-36 39 0 22 9 28 54 40 31 10 40 25 18 33-20 8-42 0-46-17v-5h-32l1 7c4 29 34 45 75 40 35-5 54-34 38-60-6-11-13-15-46-23-30-8-36-13-31-22 8-16 41-13 46 5v4h32v-5c-5-27-37-43-73-36m1506 0c-33 8-47 38-28 60 7 8 14 10 55 22 22 7 27 20 10 30-18 8-44 0-46-16l-1-6h-16c-18 0-18 0-13 16 17 48 116 40 116-10 0-24-10-32-53-43-28-7-33-10-29-20 7-18 47-12 47 6 0 2 2 2 15 2h15v-7c-3-25-40-42-72-34m285 0c-60 10-73 102-18 130 23 12 52 10 67-5l4-4 2 7 3 7h19v-74h-58v24h30l-1 5c-6 28-50 30-64 2-10-19-5-50 10-61 14-12 46-6 49 9 1 6 4 7 20 6h11v-6c0-26-40-47-74-40M1190 1150v67h107v-25h-38l-38-1v-30l34-1h34v-22l-34-1-34-1v-27h74v-26H1190v67m132-66v132h28V1130l21 31a7337 7337 0 00 30 46l8 10h31v-133h-30v43c0 41 0 43-3 40l-29-43-25-40h-16l-15 1m332 6a692 692 0 00-23 57 773 773 0 01-28 69h33l5-13 5-14 26-1h25l4 10c8 20 5 19 23 19 18 0 18 0 14-10a532 532 0 01-11-28c-2-3-10-22-30-77l-8-19h-32l-3 7m103-5v130h32v-132h-15l-17 1M2100 1150v67h107v-25h-38l-38-1v-30l34-1h34v-12l1-11h-35l-34-1v-27h74v-26H2100v67m133-66-1 67v66h30v-43l1-42c1 0 2 0 2 3l2 7c2 2 3 7 4 10l2 6 2 3 3 8 2 7 2 6c2 2 3 7 4 10l2 6 2 3 3 9 3 7h23l3-7a2030 2030 0 00 30-80l1 43v44h30v-133h-44l-7 20a488 488 0 01-24 66 488 488 0 01-16-43l-13-35c-2-8-3-9-25-9l-21 1M2410 1150v67h54l53-1v-12l1-12H2480l-38-1v-30h34l34-1v-23h-34l-33-1v-27h72v-26H2410v67m132-65v131h30v-42c0-46 0-47 8-33l8 12 22 33 20 30h32v-133h-15l-14 1-1 43-1 43-12-18-28-43-17-26H2560c-11 0-16 0-17 2m136 10v13h42v109h32v-108h41v-25h-115v12M2880 1150v67h108v-25H2950l-38-1v-30h34l34-1v-23h-34l-34-1v-27h74v-26H2880v67m120-54v12h42v109h31v-109h42v-25H3000v13m202-10v130h32v-47h25c21-2 26-2 32-5 32-17 32-60 0-76-10-5-87-7-89-3m133 65v67h107v-25h-38l-38-1v-30l34-1h34v-22l-34-1-34-1v-27h74v-26h-105v67m309-62a845 845 0 00-26 64 896 896 0 01-24 60v5h31l5-15 5-14h48c3 0 4 0 8 10 6 20 5 18 23 18h16l-2-7a445 445 0 01-17-42 7245 7245 0 01-27-68l-5-15h-33l-2 4m249-4-1 67v66h53l54-1v-24h-76V1160h67v-23h-67v-29h74v-25h-52a650 650 0 00-52 1m-3740 20h5-6m17 2h6-6m3107 4c6 4 10 14 7 20-3 12-8 14-29 15h-19v-37c0-3 36-1 41 2m389 16 5 15 6 19 1 5h-16c-19 0-18 2-10-22l9-20c0-5 5-2 5 3m-1990-3 2 8c2 2 4 10 6 17l6 13c2 3-1 4-18 4-15 0-16 0-15-3a765 765 0 00 17-42s2 1 2 3m-1513 39-66 26c-8 0-70 33-82 44-20 18-18 45 6 58l37 3c60 3 70 4 99 10 76 16 120 45 155 104l7 11L330 1440a309 309 0 00 15 28 246 246 0 00 20 33c0 4 27 40 38 50a160 160 0 00 136 40c65-10 101-40 112-94 3-14 6-88 3-88l-3 2a240 240 0 01-45 25c-24 10-106 14-112 5l-4-2c-4 0-24-10-35-18a278 278 0 01-68-90 537 537 0 00-17-30c0-4-28-47-39-62-36-46-80-70-144-80-15-2-13-2-24 4m157 2 5 5 6 5-5-5-6-5m123 190 10 10-8-10-10-9 8 10m112 40h6l-4-1h-2m1702 53c-69 20-63 126 7 136 12 2 37 0 40-3 3-3 17 4 22 11 2 4 5 3 12-5l7-7-8-7c-10-7-10-7-5-14a80 80 0 00 11-60 68 68 0 00-86-50M1190 1514v67h38c42 0 51-2 62-10a36 36 0 00 0-60l-7-3 5-4a31 31 0 00-6-52c-8-4-10-4-50-4H1190v66m140-16c0 57 0 57 15 70 20 20 71 20 90 0 13-12 14-19 14-72v-48h-30v46c-2 61-3 64-29 64-27 0-28-4-28-65v-46H1330v50m145 17v66h31v-25l2-25h17c28-1 33 3 35 29 3 22 2 22 20 22l15-1s0-3-2-5l-3-21c-1-18-6-29-13-33-6-3-6-4-2-6 15-7 20-33 12-48-10-18-18-20-70-20h-42v67m145 0v67h53l53-1v-24H1690l-38-1v-30l34-1h33v-12c1-12 0-13-9-13h-58v-26h74v-26H1620v67m166-50a786 786 0 01-24 60 1513 1513 0 01-22 56h31l6-14 6-14h25l26 2 5 14 5 13h15c18 0 18 0 14-10a1068 1068 0 01-31-80l-14-34-3-10h-33l-6 17m103 33c0 62 2 67 25 80 20 10 63 7 77-6 15-15 17-24 17-80v-44h-31v48c-1 60-2 63-28 63-27 0-29-5-29-65v-46h-32v50m135-37v12h42v109h30v-108h44v-26h-115v13m130 54v67h32v-134h-32v67M2370 1500c0 59 1 60 19 74 12 10 53 14 70 6 27-12 30-22 30-84v-47h-32v46c0 61-1 64-28 64-26 0-28-5-29-64v-47h-30v52m145 15v67h107v-25h-37l-38-1v-30l33-1h33V1500H2580l-33-1v-26h73v-26h-105v67m-1250-38c14 14 1 25-28 24H1220v-15l-1-15 20 1c18 0 20 1 24 5m281-4c10 1 15 7 15 16 0 16-6 20-33 20h-20v-37h39m751 4c15 10 22 32 17 52-5 17-6 18-14 11-8-7-9-7-17 2l-6 7c4 0 11 10 8 10-28 11-54-29-41-63 8-21 36-31 53-19m-476 40 3 8c5 5 2 6-14 6-17 0-20 0-18-4l6-13a344 344 0 01 9-24l2-6 6 14 6 20m-553 8c9 5 10 19 3 27l-5 6H1220v-35h22l25 2" fill="#898881"/><path d="M125 198v200c2 1 54 2 138 2h135v91H0v381c0 370 0 380 3 374 6-14 30-30 70-48l23-10 67-26c10-5 10-5 22-4a210 210 0 01 146 80 518 518 0 01 56 91c22 42 46 74 68 90a126 126 0 00 40 20c5 10 87 6 110-4a219 219 0 00 50-27c2 0-1 74-4 88-10 45-31 69-79 86-60 20-127 8-170-32a275 275 0 01-40-53l-17-30-7-13-8-15c-10-20-10-20-12-20l-7-12c-36-60-79-88-155-104-30-6-40-7-99-10-40-2-46-4-54-20-3-7-3 0-3 157v163h1163c930 0 1163 0 1163-2-3-6-19-14-22-11-3 3-28 5-40 4-38-6-60-40-54-82 10-74 118-77 133-4 5 20 0 48-10 60-6 7-6 7 4 14l8 7-7 7-7 7H4000v-378l-54 1h-54v-132h105v24h-74v29h67v23h-67v32h77V880h-15c-10 0-15 0-17-2a1645 1645 0 01-47-73c-10-15-10-16-10 33V880h-28v-67l-1-66h32l10 14c4 8 10 15 10 17 13 22 36 53 37 50v-81h29V492h-123l-3-6c-6-14-9-30-13-69a346 346 0 00-10-65 91 91 0 00-18-31c-17-18-36-21-123-21h-68v192h-125V0H3410v93h-296v101H3250l135 1v86H3250l-135 1 1 117 152 1h150v92H2990V0h-110v492h-118V320c0-118-1-170-2-167l-3 8-5 12-5 13-5 12-5 13-5 12a260 260 0 01-25 63l-5 13-5 13-5 12-4 10a324 324 0 01-17 40l-1 4-8 20-2 6s0 4-2 6l-6 15-5 13-5 12a183 183 0 01-9 21l-1 5-4 10-3 6h-94l-2-6a1190 1190 0 00-16-37 125 125 0 01-10-25 114 114 0 01-10-25 232 232 0 01-15-36 392 392 0 01-19-47 434 434 0 00-20-52l-5-10a404 404 0 00-16-40l-8-21c0-2 0-3-2-3 0 0-2-2-2-5s-2-7-3-8c-2-5-8-18-8-21-2-5-2 0-2 177v158h-118V0h-110v492h-118V320c0-118-1-170-2-167l-3 8-5 12-5 13-5 12-5 13-4 10a301 301 0 01-14 34 707 707 0 01-22 57l-5 12-4 10a324 324 0 01-17 40l-1 4-8 20-2 6s0 4-2 6l-6 15-5 13-4 9a448 448 0 01-12 30l-5 14h-95l-2-4a1406 1406 0 01-30-75 482 482 0 00-16-38 114 114 0 01-10-25 255 255 0 01-15-36l-4-10a404 404 0 00-16-40 115 115 0 01-10-26 230 230 0 01-15-36 692 692 0 01-18-47l-1 167v170H1560V0h-107v93h-296v51l1 50 135 1h134V280h-269v120H1460v92h-214l-213-1V245L1031 0H758a200 200 0 00 14 33A886 886 0 00 788 70l13 32 6 12 22 53 30 69 4 12a228 228 0 00 14 31 893 893 0 00 25 59 1078 1078 0 01 30 70 1078 1078 0 01 22 52l13 30c0 1-30 2-65 2h-65l-1-5-8-20-1-4-4-9-3-10-1-3-6-13-5-12-1-4a138 138 0 01-8-20l-3-9H587l-2 7-3 8-5 12-5 13-5 12-5 13-5 12-5 13-5 10-3 9h-63c-59 0-63 0-62-3a780 780 0 01 27-62 792 792 0 00 32-75 1290 1290 0 01 30-70 1290 1290 0 01 29-64 1656 1656 0 01 36-86 953 953 0 00 20-46 951 951 0 01 20-47L630 1 378 0H125v198M1735 0a620 620 0 00 27 70 301 301 0 01 10 24l4 10a3189 3189 0 00 58 150 543 543 0 00 18 44l5 13 5 13c4 12 7 12 9 2 0-3 2-6 3-7l1-3 2-8a518 518 0 00 21-57l2-4 2-8a425 425 0 00 15-41 912 912 0 00 31-85 560 560 0 01 20-52l5-13a520 520 0 00 16-44c5-4-9-4-127-4h-127M2450 0a620 620 0 00 27 70 294 294 0 01 10 24l7 20a2746 2746 0 00 52 131l6 15 6 15 2 7 1 4 6 12 5 13 5 13c4 12 7 12 9 2 0-3 2-6 3-7l1-3 2-8a828 828 0 00 20-55 850 850 0 00 25-69 534 534 0 00 16-43 1862 1862 0 00 34-93 484 484 0 00 17-44c5-4-9-4-126-4H2450m1400 2c28 5 37 8 57 17 100 48 104 183 6 233-13 6-16 8-14 9a97 97 0 01 68 64l3 10 3 15c3 16 5 32 6 53 2 36 8 65 17 80l4 6V0h-78c-43 0-75 0-71 2m-210 151v69h83c76-1 82-2 91-5 32-11 45-30 45-66 0-9 0-16-2-17l-1-3c0-12-18-32-35-38-20-7-30-8-106-8h-74v68m-2950-30-4 11a422 422 0 01-21 52l-5 12-5 13-5 12-5 13-4 10a399 399 0 01-17 42l-3 8-2 4h140v-5a299 299 0 01-18-47 558 558 0 01-23-60l-1-4-6-12-6-15a20 20 0 01-2-7l-1-4-6-13c-3-9-4-11-6-10m6 880c0 170-1 274-3 281-10 67-50 103-129 110-60 5-103-13-137-57a472 472 0 01-44-74c-64-123-98-147-230-158-90-8-102-11-110-32-10-24 20-54 78-78l13-5a590 590 0 01 75-29 567 567 0 01 50-21 636 636 0 00 55-23 1934 1934 0 00 120-55l29-13a8183 8183 0 00 232-116v270m888-259c45 10 67 60 45 104-22 43-93 46-119 4-33-54 13-122 74-108m771 0c48 10 70 68 42 110l-5 8 8 8 7 7-5 6c-8 10-8 10-19 0l-10-8-8 4c-46 18-101-24-93-72 6-38 24-58 56-63 13-3 13-3 27 0m850 0c27 4 45 19 50 40v6h-15c-14 0-15-1-16-4-2-12-20-20-36-16-24 5-35 36-24 65 10 25 50 30 62 7 6-12 4-14-12-14H3200v-10l-1-11h60v35c0 40 0 38-12 38-8 0-11-3-11-10 0-4 0-4-10 2a62 62 0 01-79-10c-45-48-5-129 59-119m280 2c20 5 36 21 36 38 0 4 0 4-15 3h-15l-2-6c-4-16-38-20-44-3-5 10 0 13 31 21 38 10 50 20 50 42 0 27-23 43-61 41-33 0-52-15-56-40l-1-6h29l4 8c10 21 54 22 54 0 0-10-17-18-54-26a37 37 0 01-28-34c0-30 33-46 73-38m319 0c44 10 64 57 44 101-21 48-100 48-122 0-27-57 18-116 78-101M1490 759v13h-65v29h58v24h-58v27c0 30 1 29-20 28h-13V746h98v12m-270 54V880h-30V747h30v66m75-43 27 43c15 23 15 24 15-26v-40h28V880h-30l-15-23a816 816 0 01-40-62c0-1 0-1-2 0a250 250 0 00-1 43V880h-30V746h32l16 23m460-20c25 11 30 42 10 60l-7 6 4 3c9 6 13 15 14 34l4 20c2 7 1 7-14 7-17 0-17 0-20-23-2-26-6-29-34-30h-19v52h-30v-66l-1-66h43c40 0 44 0 50 3m100 10a83318 83318 0 01 26 71c2 6 4 0 17-41l14-43h45V880h-29l-1-46c0-40 0-44-3-38a786 786 0 01-26 71l-4 12h-12c-10 1-12 0-13-2a10076 10076 0 01-32-84c-1-1-2 15-2 43V880h-27v-67l-1-66h44l4 13m204-10a1121 1121 0 00 28 70c6 14 21 56 20 58 0 3-28 3-30 0l-4-10-5-13-2-5h-51l-5 15-6 15H1990c-10 0-16 0-16-2a868 868 0 01 30-77 1085 1085 0 00 20-49l2-5h17c15 0 16 0 17 3m143 10v12H2160V880h-30V772h-43v-25h115v12m48 54v66h-31V747h31v66m215-20c0 60 3 64 30 64 25 0 26-2 26-61v-50h32v47c0 55-1 63-16 75-20 19-67 19-88 0-13-11-13-12-14-70v-51h30v46m220-34v13H2610v26h34l34 1v23h-67v16l-1 15h38l38 1V880h-53l-53 1V747h105v12m185-7c44 20 47 92 5 120-11 6-27 8-63 8h-31v-67l-1-66h40c40 0 40 0 50 5m163 7v13H2960v26h33l33 1v23H2960v31h37l37 1V880h-53l-53 1V747h105v12m357-2c0 16 3 15-39 15h-36v26h34l34 1v23h-67v16l-1 15h75V880h-105V747H3390v10m260 2v13h-40v106l-4 1H3580v-53l-1-53h-20l-21-1v-25H3650v12m48 54v66h-30v-66l-1-66h31v66M1560 770c-34 7-38 70-5 84 28 12 50-8 50-42 0-32-16-48-45-42m770 0c-41 10-32 87 12 87 10 0 12-2 5-7-7-5-7-6 1-14l7-7 7 7c10 7 12 6 14-7 8-40-12-67-45-59m1450 0c-34 7-38 70-5 84 28 12 50-6 50-40 0-30-16-50-37-45l-9 1m-2087 18v19h20c27 0 35-6 33-23-2-12-6-14-31-14h-22v18m1120-15-1 40v40h17c30 0 40-6 43-30 4-24-4-43-22-49-7-2-35-3-37-1m-780 30-10 23h17c20 0 18 3 10-19-10-30-8-30-18-3m-473 280 10 5c0 2 3 3 4 3 5 0 18 20 20 32l2 4h-31l-2-6c-7-20-44-21-58-2-7 10-10 28-7 43 9 37 54 43 66 8l3-6h14c17 0 18 0 11 17-15 40-73 50-107 18-25-24-25-76 0-100 18-18 50-25 75-15m342 0c14 6 23 17 26 34l1 4h-15c-15 0-16 0-16-3 0-20-45-23-47-3 0 8 4 11 26 17 49 13 61 24 56 50-11 51-111 46-117-5l-1-7h31v4c0 20 40 29 53 13 10-12 2-20-22-27-51-13-62-23-55-52 4-24 48-37 80-25m140 0c14 4 26 18 28 33l1 5h-30l-1-4c-5-18-38-21-46-5-5 10 2 14 31 22 33 8 40 12 46 23 16 26-3 55-38 60-41 5-70-11-75-40l-1-7h31l1 5c4 17 25 25 46 17 22-8 13-24-18-32-45-13-54-20-54-41 0-31 40-50 80-37m1502 0c16 4 30 18 32 32v7H3560c-13 0-15 0-15-2 0-18-40-24-47-7-4 10 0 14 30 20 41 12 52 20 52 44 0 50-99 58-116 10-5-16-5-16 13-16h16v6c3 16 30 24 47 15 17-8 12-22-10-29-41-12-48-14-55-22-30-33 16-73 68-59m282 0c17 5 37 25 37 40v5h-11c-16 0-19 0-20-6-3-15-35-20-49-10-20 17-20 59 0 75 18 14 50 5 54-15v-5h-29v-24h58v74h-20l-2-7-2-7-4 4c-20 20-62 15-83-7-14-16-18-26-18-50 0-50 40-80 90-67m-2531 13v12h-37l-37 1v27h34l34 2v21l-34 1h-34v31h76v26H1190v-134h105v13m83 27 30 43c2 3 2 1 2-40v-43h30v134h-31l-7-10a1370 1370 0 00-30-47l-21-30v43l-1 44h-14l-14-1v-132h31l25 39m318-20a6600 6600 0 00 42 103c4 10 4 10-14 10-18 0-15 3-23-17l-4-11h-25a280 280 0 00-26 0l-5 15-5 13H1620a70 70 0 01-17 0 365 365 0 01 15-38 547 547 0 01 13-31 677 677 0 01 23-57l3-7h32l7 20m93 47v66h-32v-64c0-77-2-69 17-68h15v66m416-54v12h-37l-37 1v27h69v23l-35 1h-34v31h76v26H2100v-134h105v13m71-10 3 6a624 624 0 00 16 44c2 7 11 32 13 34a420 420 0 01 24-66l7-20h44v133h-30v-44c0-24 0-43-1-42l-7 17a1609 1609 0 01-23 62l-3 7h-23l-3-7-3-10s0-2-2-2l-2-6c0-3-2-8-4-10l-2-6-2-7-3-8c0-1 0-3-2-3l-2-6c0-3-2-8-4-10a20 20 0 01-2-7c0-2 0-3-2-3a220 220 0 00-1 42v43h-30v-133c3-2 42 0 44 1m239 10v13h-36l-37 1v27h68v24h-67v31h75v25H2410v-133h105v13m76 13 28 43 12 18v-43l1-43h30v133H2630l-20-30a2538 2538 0 00-30-46c-8-14-8-13-8 33v43h-15l-14-1v-64c-1-77-3-69 16-69h15l17 26m202-13v12h-20l-20 1v54l-1 54H2720v-109h-42v-25h57l58 1v12m192 0v12h-36l-36 1v27h67v24h-68v31h76v26H2880v-134h105v13m130 0v12h-42v109h-31v-109H3000v-25h115v13m175-8c33 16 33 59 1 76-6 3-10 3-32 4l-24 1v47h-33v-131c2-4 79-2 88 3m150 8v12h-37l-37 1v27h34l34 2v21l-34 1h-34v31h76v26h-107v-134H3440v13m244 3a440 440 0 00 15 38 7245 7245 0 00 31 79h-16c-18 0-17 1-23-17-4-10-5-12-8-11h-48l-5 15-5 14h-32l1-5 5-12a720 720 0 00 24-60 896 896 0 00 20-52l3-5h16l17 1 5 15m-450 10v20l1 16h20c20 0 25-3 28-14 3-7-1-17-7-20-5-4-40-6-41-2m425 13-8 21c-10 24-10 22 10 22h15v-5l-7-19-5-15c0-5-5-8-5-4m-1990 0-2 9a360 360 0 00-12 31c-1 3 0 3 15 3 17 0 20 0 18-4a90 90 0 01-6-13 218 218 0 00-8-25c0-2-1-3-3-3 0 0-2 1-2 3m-388 330c20 10 24 38 6 52l-5 4 7 3a36 36 0 01 0 60c-10 8-20 10-62 10H1190v-134h42c40 1 42 1 50 5m80 41c0 61 1 65 28 65 26 0 27-3 28-64v-47h16l15 1v48c0 53-1 60-13 72-20 20-70 20-91 0-14-13-14-13-15-70v-50h32v45m205-43c27 10 33 54 8 65-4 2-4 3 2 6 7 4 12 15 13 33a107 107 0 00 5 26H1580c-18 0-17 1-20-21-2-26-7-30-35-30h-18v26l-1 25h-30v-66l-1-67h42c36 0 44 0 50 3m158 10v12h-36l-37 1v26h58c10 0 10 1 10 13v11l-34 1h-33v31h74v13l-1 12H1620v-133h105v13m103-3a1207 1207 0 00 30 74l15 40c4 10 4 10-14 10h-15l-5-13-5-14-26-2h-25l-6 14-6 15h-15l-16-1 2-7a532 532 0 00 20-50 1360 1360 0 01 24-60l6-16h33l3 10m92 36c0 60 2 65 30 65 25 0 26-2 26-63v-48h32v43c0 57-2 66-17 80-14 14-56 17-77 7-23-13-25-18-25-80l-1-50h32v46m218-33v12h-20l-22 1v54l-1 54h-30v-109h-42v-25h115v13m47 54v67h-32v-134h32v67m215-20c0 60 3 64 29 64 27 0 28-3 28-64v-47h16l16 1v47c0 62-3 72-30 84-18 8-58 5-70-6-18-14-18-15-19-74v-52h30v47m220-34v12h-36l-36 1v13l-1 13h66v25l-33 1h-33v31h75v26h-107v-134H2620v13m-1400 25v15h17c20 1 27-1 30-9 6-14 0-19-27-20h-20v14m287 4v18h20c27 0 33-3 33-19 0-14-8-17-37-17h-16v18m754-16c-27 14-29 68-3 80 7 4 21 6 26 5 3-2-4-10-8-10l6-8c8-10 9-10 17-2 8 7 10 6 14-11 9-36-23-69-52-54m-455 15a573 573 0 01-15 37c-2 3 1 4 18 4 16 0 19-1 14-6l-3-7c0-4-4-13-6-20l-6-14-2 6m-586 52v18h23l22-2 5-5c6-6 6-13 2-20-3-8-7-9-30-9H1220v18" fill="none"/></g></svg>
